<?xml version="1.0" encoding="UTF-8"?>
<svg id="uuid-1fdd14cb-4131-41a8-a326-8dd9965233d0" data-name="Layer 2" xmlns="http://www.w3.org/2000/svg" width="7.7mm" height="10.3mm" viewBox="0 0 27.4 34.9">
  <defs>
    <style>
      .uuid-739a3ad1-cb79-4e22-9869-409deee5209d, .uuid-35166f24-ee1d-4d74-b2e2-b541804900d6 {
        fill: #FFFFFF;
      }

      .uuid-35166f24-ee1d-4d74-b2e2-b541804900d6 {
        fill-rule: evenodd;
      }
    </style>
  </defs>
  <g id="uuid-3f881a89-f0bd-4acc-b6f4-6eac5643c334" data-name="Layer 1">
    <g>
      <path class="uuid-35166f24-ee1d-4d74-b2e2-b541804900d6" d="M2,30.9c.4,0,.7,.1,1,.3v-.3h1v4h-1v-.3c-.3,.2-.6,.3-1,.3-1.1,0-2-.9-2-2s.9-2,2-2m0,1c.6,0,1,.5,1,1s-.5,1-1,1-1-.5-1-1,.5-1,1-1"/>
      <path class="uuid-35166f24-ee1d-4d74-b2e2-b541804900d6" d="M6.4,30.9c.4,0,.7,.1,1,.3v-1.6h1v5.3h-1v-.3c-.3,.2-.6,.3-1,.3-1.1,0-2-.9-2-2s.9-2,2-2m0,1c.6,0,1,.5,1,1s-.5,1-1,1-1-.5-1-1,.5-1,1-1"/>
      <path class="uuid-35166f24-ee1d-4d74-b2e2-b541804900d6" d="M10.8,30.9c.4,0,.7,.1,1,.3v-1.6h1v5.3h-1v-.3c-.3,.2-.6,.3-1,.3-1.1,0-2-.9-2-2s.9-2,2-2m0,1c.6,0,1,.5,1,1s-.5,1-1,1-1-.5-1-1,.5-1,1-1"/>
      <path class="uuid-35166f24-ee1d-4d74-b2e2-b541804900d6" d="M13.3,34.9h.9v-1.6c0-.2,0-.3,0-.5,0-.5,.4-.9,1-.9s.8,.3,.9,.8c0,.2,0,.4,0,.6v1.6h.9v-2.2c0-1-1-1.8-2-1.8s-1.7,.5-1.9,1.3c0,.2,0,.3,0,.5v2.2Z"/>
      <rect class="uuid-739a3ad1-cb79-4e22-9869-409deee5209d" x="17.6" y="30.9" width="1" height="4"/>
      <rect class="uuid-739a3ad1-cb79-4e22-9869-409deee5209d" x="17.6" y="29.6" width="1" height=".8"/>
      <path class="uuid-35166f24-ee1d-4d74-b2e2-b541804900d6" d="M21.1,30.9c1,0,1.8,.7,2,1.6h-1c-.2-.4-.5-.6-.9-.6s-1,.4-1,1,.4,1,1,1,.8-.3,.9-.6h1c-.2,.9-1,1.6-2,1.6s-2-.9-2-2,.9-2,2-2"/>
      <path class="uuid-35166f24-ee1d-4d74-b2e2-b541804900d6" d="M25.4,30.9c1.1,0,2,.9,2,2s0,.3,0,.4h-2.9c.2,.4,.5,.6,.9,.6s.5-.1,.7-.3h1.1c-.3,.8-1,1.3-1.9,1.3s-2-.9-2-2,.9-2,2-2m-.9,1.6h1.8c-.2-.4-.5-.6-.9-.6s-.8,.2-.9,.6"/>
      <path class="uuid-739a3ad1-cb79-4e22-9869-409deee5209d" d="M13.7,9.5h0l2.2,6.9h8.1L18.6,1.7h0C18.3,.7,17.4,0,16.3,0h-5c-1.1,0-2,.7-2.4,1.7h0L3.4,16.4H11.6l2.2-6.9Z"/>
      <path class="uuid-739a3ad1-cb79-4e22-9869-409deee5209d" d="M27.2,24.9l-2.4-6.6H2.7L.3,24.9c-.1,.3-.2,.6-.2,1,0,1.4,1.1,2.5,2.5,2.6h3.3c1.2,0,2.2-.9,2.5-2.1h0l.6-2h9.4l.6,2h0c.2,1.2,1.3,2,2.5,2h3.3c1.4,0,2.5-1.1,2.5-2.6s0-.7-.2-1"/>
    </g>
  </g>
</svg>