<?xml version="1.0" encoding="UTF-8"?>
<svg id="uuid-e57a3176-9e59-4733-b9e1-9b84057a0439" xmlns="http://www.w3.org/2000/svg" width="11.5mm" height="10.6mm" viewBox="0 0 38.3 35.6">
  <defs>
    <style>
      .uuid-775b2337-911a-4ed3-81d2-b5493d92cb2f {
        fill: #FFFFFF;
      }
    </style>
  </defs>
  <g id="uuid-4bc17ad5-658e-45d4-9b58-cf9446dc7e73" data-name="Layer 1">
    <g>
      <path class="uuid-775b2337-911a-4ed3-81d2-b5493d92cb2f" d="M38,31.9c-.4-.7-1.1-1-1.8-1h-7.2v4.6l-3.3-4.6h-3.7l-3.3,4.6v-.9h-6.6v-.8h6.6v-1.1h-6.6v-.8h6.6v-1.1H9.8v4.8h11l.6-.8h4.6l.6,.8h9.5c.7,0,1.5-.3,1.8-1,.4-.8,.4-1.9,0-2.7m-15.8,1.9l1.2-1.7h.6l1.2,1.7h-3.1Zm13.9,0c-.1,.2-.4,.3-.6,.3h-4.5v-1.8h4.5c.2,0,.4,0,.6,.3,.2,.4,.2,.9,0,1.2"/>
      <polygon class="uuid-775b2337-911a-4ed3-81d2-b5493d92cb2f" points="2.1 32.5 6.6 32.5 6.6 30.9 8.7 30.9 8.7 35.6 6.6 35.6 6.6 33.8 2.1 33.8 2.1 35.6 0 35.6 0 30.9 2.1 30.9 2.1 32.5"/>
      <path class="uuid-775b2337-911a-4ed3-81d2-b5493d92cb2f" d="M7.4,26.8C8.6,13,14,0,21.1,0s9.2,7.8,10.7,13.3l-2.9,1.7c-1.4-4.1-4.3-9.1-7.8-9.1-6.3,0-9.6,12.2-10.2,18.6l-3.5,2.2ZM21.1,8.4c-1.2,0-2.2,1-2.2,2.2s1,2.2,2.2,2.2,2.2-1,2.2-2.2-1-2.2-2.2-2.2"/>
    </g>
  </g>
</svg>