<?xml version="1.0" encoding="utf-8"?>
<!-- Generator: Adobe Illustrator 26.3.0, SVG Export Plug-In . SVG Version: 6.00 Build 0)  -->
<!DOCTYPE svg PUBLIC "-//W3C//DTD SVG 1.1//EN" "http://www.w3.org/Graphics/SVG/1.1/DTD/svg11.dtd" [
	<!ENTITY st0 "fill-rule:evenodd;clip-rule:evenodd;fill:#FFFFFF;">
]>
<svg version="1.1" id="Layer_1" xmlns="http://www.w3.org/2000/svg" xmlns:xlink="http://www.w3.org/1999/xlink" x="0px" y="0px"
	 width="800px" height="800px" viewBox="0 0 800 800" style="enable-background:new 0 0 800 800;" xml:space="preserve">
<polygon style="&st0;" points="169.8,311 167.9,309.2 165.7,307.3 163.5,305.3 161.1,303.4 158.6,301.6 156,300.1 153.2,298.9 
	150.5,298.1 147.9,297.7 145.4,297.5 142.9,297.8 140.5,298.6 138.2,300 135.8,301.9 133.5,304.4 132.4,305.9 131.3,307.5 
	130.4,309.3 129.5,311.1 128.8,313 128.1,315 127.6,317 127.1,319.1 126.7,321.2 126.4,323.3 126.1,325.4 126,327.5 125.9,329.6 
	125.9,331.7 126,333.7 126.1,335.7 126.3,337.6 126.5,339.5 126.9,341.4 127.3,343.2 127.8,345.1 128.3,346.9 129,348.6 
	129.7,350.4 130.6,352 131.6,353.6 132.7,355.1 133.9,356.6 135.2,357.9 136.7,359.2 138.3,360.4 140,361.5 142,362.3 144.1,363 
	146.3,363.4 148.7,363.6 151.1,363.5 153.6,363.4 156.1,363 158.6,362.5 161.1,361.9 163.5,361.1 165.9,360.3 168.2,359.4 
	170.3,358.5 172.3,357.5 174.1,356.5 175.7,355.5 178.6,353.3 181.5,350.8 184.3,348.2 186.8,345.5 189,342.7 190.8,340 192,337.4 
	192.5,335 192.6,332.9 192.4,330.9 192,329 191.3,327.2 190.3,325.5 188.9,323.9 187.1,322.4 184.9,321.1 182.5,319.7 180.2,318.2 
	177.9,316.8 175.9,315.4 174.2,314.3 172.9,313.3 171.7,312.5 169.8,311 "/>
<path style="&st0;" d="M191.3,266.9l3.8-0.2c0,0-0.4,4.9-2,10.6c-1.5,5.7-9.7,21.2-14.1,27.4c-4.4,6.2-7.5,9.7-7.5,9.7l-1.3-1.1
	c0,0,9.1-9.7,13.5-17.9c4.4-8.2,7.3-15.9,7.5-19.9C191.3,271.6,191.3,266.9,191.3,266.9L191.3,266.9z"/>
<path style="&st0;" d="M75.1,375.2l27.2,40c4.3,6.3,11.4,12.5,18,12.5h1.7l0,1.7H72.4l0-1.7h4.2c6.6,0,8.4-5.2,4.1-11.5l-20.8-30.6
	c-0.7-0.8-2.4-1.9-5.1,0c-4,2.7-7.3,7-7.3,13c0,0.2,0,0.4,0,0.6v17c0,6.3,5.4,11.5,11.9,11.5h5.7v1.7H11.4v-1.7h4.2
	c6.6,0,11.9-5.2,11.9-11.5v-64.6c0-6.3-5.4-11.5-11.9-11.5h-4.2v-1.7h53.7v1.7h-5.7c-6.6,0-11.9,5.2-11.9,11.5v29.7l0,0
	c0,0-0.5,3.4,1.5,3.4c2,0,5.6-2.7,11.2-9c5.6-6.3,7.1-13.8,7.1-13.8l3.6,3.3c0,0,11.2-8.5,14-14.5c5.8-12.3-6.9-10.6-11.1-10.6v-1.8
	h40.8v1.9c-8.7,0-46.5,24.8-40.4,33.5C74.5,374.3,74.8,374.8,75.1,375.2L75.1,375.2z M160,370.8h1v47.3c0,5.2,4.3,9.5,9.5,9.5h2.3
	v1.8h-43.6v-1.8c9.9-0.2,11.1-2.6,12.9-9.7c1.8-7.5,1.1-18.6,0.5-27.6c-0.6-7.8-10.6-9.6-13.3-9.9v-2.2
	C133,378,151.6,376.4,160,370.8L160,370.8z M206.8,370.5l1.6,0l2.2,7.1c2.4-2,10.8-8.3,19-8.3c9.7,0,13.2,7.2,13.2,11.6
	c0,4.4-3.1,9.2-9.3,9.2c-6.2,0-7.5-4.9-10.7-7.6c-3.2-2.7-3.4-3.7-6.5-3.7c-3.1,0-5.6,3.4-5.6,7.5c0,0.2,0,0.5-0.1,0.7v31.2
	c0,5.2,4.3,9.5,9.5,9.5h2.3v1.8h-43.6v-1.8c9.9-0.2,11.1-2.6,12.9-9.7c1.8-7.5,1.1-18.6,0.5-27.6c-0.6-7.8-10.6-8.2-13.3-8.5v-2.2
	C182.6,379.3,198.4,376.2,206.8,370.5L206.8,370.5z M297.7,389.2l-5.2-21.4h-1.8c0,0-1.5,2.4-3.7,2.4c-2.1,0-5.1-1.5-16.2-1.5
	c-11.1,0-26.3,2.7-26.3,18c0,15.4,18,16.9,29,20.3c11,3.4,14.3,5.6,14.3,11.4c0,5.8-8.3,9.4-11.9,9.4c-3.7,0-10.7-1-18.1-7.9
	c-7.5-6.9-11.9-16.4-11.9-16.4H244l6.9,26.4c0,0,4.1-3.1,8.9-3.1c4.8,0,7.2,3.4,20.5,3.4c13.4,0,22.9-11.6,22.9-20.3
	c0-8.7-7-14.1-12.5-15.5c-5.5-1.4-30.1-6.2-30.1-15.2c0-9,9.4-7.9,11.9-7.9c2.5,0,8.9,0.8,14.8,5.6c5.9,4.8,9,12.3,9,12.3
	L297.7,389.2L297.7,389.2z M367.6,411.9l2.3,1c0,0-10.8,17.1-31.5,17.1c-20.7,0-32.9-10.3-32.9-28.2c0-17.9,14.2-33.1,37.2-33.1
	c23,0,23.7,13,22.1,18.8c-1.6,5.9-11,6.4-16.6,1.1c-5.5-5.3,0.3-17-6.9-17c-7.2,0-17.2,2.5-17.2,24.9
	C324.1,419.6,354.1,433.1,367.6,411.9L367.6,411.9z M393.9,335h3.1c0,0.1,0,0.2,0,0.3v34.3v6.8v0v0c0,0.3,0.6,3.2,7.6-0.9
	c7.3-4.2,12.7-7.8,21.1-7.8c7.9,0,12.9,6,13.5,13.4l0.1,0v39.4c0,4,3.6,7.3,8.1,7.3h2.9v1.9h-38.4v-1.9c0.3,0,0.7,0,1,0l0,0
	c7.8,0,8.3-3.8,8.3-8.6v-37l0.1,0v-0.4c0,0,0.6-5.9-6.5-5.9c-7.2,0-17.5,6.4-17.5,12.5v32.2c0,4,3.5,7.3,7.8,7.3h2.3v1.9h-42.2v-1.9
	c0.3,0,0.6,0,1,0l0,0c7.5,0,13.6-3.8,13.6-8.6v-65.9c0-4.7-6.1-8.6-13.6-8.6l0,0c-0.3,0-0.6,0-1,0v-1.7
	C367.3,342.8,379.4,342.4,393.9,335L393.9,335z M441.5,343.1v2.3h7.4c0,0,8.7,0.4,8.7,9.7c0,9.3,0,45.5,0,45.5s0.2,17.1-0.8,22.4
	c-1,5.3-1,6.4-1,6.4h1.4c0,0,1.5-4.1,9.5-4.1c8,0,18.6,6.2,26.2,6.2c7.6,0,31.4-3.4,31.4-33.3c0-24.5-25.1-37.5-43.9-25.3
	c-3.5,2.3-6.4,3-6.4-3.3c0-8.2,0-35,0-35h-1.9C465.9,334.8,449.5,341.6,441.5,343.1L441.5,343.1z M489.7,371.7
	c8.5,0,15.4,12.5,15.4,27.9s-6.9,27.9-15.4,27.9c-8.5,0-15.4-12.5-15.4-27.9S481.3,371.7,489.7,371.7L489.7,371.7z M595.7,420.6
	c-2.1,2-3,3.8-5.8,3.8c-2.8,0-4.5-1.8-4.5-5.3c0-3.4,0-28.1,0-28.1s2.3-20.6-29.5-20.6c-31.8,0-31.9,24.2-19,24.2
	c13,0,12.4-9.8,10.8-13.3c-1.6-3.6-0.7-8.7,7.1-8.7c7.8,0,12.6,5.6,12.6,10.8c0,5.2,0,9.9,0,9.9s-42.6,0.2-42.6,22
	c0,23.3,33.1,18.6,42.3,5.5c0,0,1.6,10.4,17.1,10.4C598,431.4,602.3,414.3,595.7,420.6L595.7,420.6z M567.5,411.2v-10.5
	c0,0,0.7-3.6-2.6-3.6c-3.3,0-19.4,3-19.4,17C545.5,432.6,567.5,421.4,567.5,411.2L567.5,411.2z M590.5,379.1v2.3h5.2
	c0,0,6.9-0.5,6.9,7.8c0,8.4,0,25.6,0,25.6s-1.3,17.2,14.2,17.2c15.5,0,21.8-8.5,25.9-8.5c4.1,0-0.7,6,7.2,6c7.9,0,24.9,0,24.9,0
	v-1.9c0,0-12.2,1.4-12.2-11.6c0-13.1,0-44.4,0-44.4h-3.4c-12.1,5-19.6,5.8-25.7,6.3v2.5c4.7,0.6,10.5,1.5,10.7,7.4l0,0
	c0,0,0,0.1,0,0.4c0,0,0,0.1,0,0.1c0,3.6,0,24.7,0,27.3c0,6-22.7,14.6-22.7,0.4v-24.3v-1.1v-18.8h-2.7c0,0-5.1,3.1-12.8,4.8
	C598.4,378.3,590.5,379.1,590.5,379.1L590.5,379.1z M789.3,385.1v35.2c0,4,2.3,7.3,6.3,7.3h1.8v1.9h-34.2v-1.9h0.8
	c4,0,7.1-3.3,7.1-7.3v-30.9l0,0c-0.4-16.8-20.6-13.6-22.3-3.2v34c0,4,2.3,7.3,6.3,7.3h1.8v1.9h-34.2v-1.9h0.8c4,0,6.2-3.3,6.2-7.3
	v-30.9l0,0c-0.1-3-1.1-11.4-9.9-11.4c-10.7,0-12,7.8-12,9.3c0,0.1,0,0.1-0.1,0.2v32.9c0,4,3.3,7.3,7.3,7.3h1.8v1.9h-44.2v-1.9h7.8
	c4,0,8.1-3.3,8.1-7.3v-30.9c0-4-5-7.3-9.1-7.3h-3.2v-2.3c0,0,17.2-1.2,26.6-8.3h4.7v4.7l0.1,0.1c0,0-0.3,2.8,1.5,2.4
	c1.7-0.5,15.7-9.4,25.5-9.4c7.6,0,11.9,4.6,13.4,10.3c1.8-1.6,11.4-9.8,24.9-9.8C787.4,369.7,789.1,379.3,789.3,385.1L789.3,385.1
	L789.3,385.1z"/>
<path style="&st0;" d="M707.5,444.6c-2.1,5.8-1.6,9.6,1.8,10.4c3.4,0.8,8.1-2.1,8.9-6.7C721,440.6,710.6,435.9,707.5,444.6
	L707.5,444.6z M336.2,444.6c-2.1,5.8-1.6,9.6,1.8,10.4c3.4,0.8,8.1-2.1,8.9-6.7C349.8,440.6,339.3,435.9,336.2,444.6L336.2,444.6z
	 M255.5,476.2c1.7-4.5,3.4-13-7.8-13c-15.3,0-18.2,12.9-14.4,16.7c3.8,3.8,9.2,7.8,8.1,11.8c-1.1,4-7.6,10.5-7.6,3.5
	c0-7,0.2-10.8-5-11.8c-5.1-1-6.1,4.8-5.5,11.6c0.7,6.8,4.9,13.6,10.1,13.6c5.1,0,16-5.3,17.3-13.1c1.3-7.8,0.7-10.8-3.6-14.4
	c-4.3-3.6-6.1-6.8-2.5-8.6c3-1.4,6.2,2,8.1,4.4C253.9,478.1,255.3,476.7,255.5,476.2L255.5,476.2z M474.2,477.2
	c1.7-4.5,3.4-13-7.8-13c-15.3,0-18.2,12.9-14.4,16.7c3.8,3.8,9.2,7.8,8.1,11.8c-1.1,4-7.6,10.5-7.6,3.5c0-7,0.2-10.8-5-11.8
	c-1.2-0.2-2.2-0.1-3,0.4c-1.5,0.7-3.2,2.2-7.3,4.8c-5.6,3.6-9,7.2-6.5,0.2c2.5-7,6.8-20.2,3.6-21c-3.3-0.8-7-2.3-8.8,4
	c-1.9,6.4-6.5,13.1-12.2,18.7c-5.7,5.6-9.3,6.7-8.1-0.5c1.5-8.5,3.9-16.2,18.3-22.9c0,0,2.8,1.1,2.6-2.3c-0.2-3.4-2.9-8.1-5.7-6.8
	c-2.8,1.2-10.2,4.2-17.5,12.8c-4,4.7-6.1,9.5-6.9,14.4l-10.2,7.2c0,0-2.4,1.5-0.5-3.2c1.9-4.7,8.2-14.1-0.6-18
	c-8.8-3.8-19.1,5.7-21.7,7.8c-2.6,2.1-6.1,6.2-4,0.9c2.1-5.3,6.9-12.4,6.9-12.4s0.9-2-3.2-3c-4.1-1-7.4-0.1-9.4,3.3
	c-4.4,7.7-5.8,17.4-6.4,17.9L334,495c0,0-3.8,2.6-2.7-2.9c1.1-5.5,5.2-18.8,7.2-22.6c2-3.7-1-5.1-1-5.1s-4.8-3.8-7.6,0.6
	c-2.3,3.8-6.6,9.7-7.8,20.1l-13.7,8.8c0,0-3.8,2.2-0.6-3.9c3.3-6.1,4.8-9.7,4.8-9.7s1.5-3.1-1.6-4.6c-3.1-1.5-7.2-1.8-7.2-1.8
	s8.4-10.8,2.2-15.1c-6.2-4.2-13.2,5.5-14.9,7.9c-1.6,2.4-2,6.6-0.9,8.5c1.1,1.8,1.5,3.1,1.5,3.1c-2.7,2-16.3,14.3-22.1,16.3
	c-1.8,0.6-1.7-1-1.5-4c0.4-6.1,4.8-17.3,4.8-17.3h10.6c0,0,2.3-0.1,2.3-4c0-3.9,0.6-6.1-2.7-6.1c-3.3,0-6.6,0-6.6,0l5.3-19.2
	c0.6-2.7-2.4-4.3-4.2-4.4c0,0-4.9-1.3-6,3.9c-1.1,5.1-6.1,20-6.1,20h-4.6c0,0-1.6-0.3-2,2.6c-0.4,2.9,0,6.4,0,6.4s0,1.3,0.9,1.3
	c0.9,0,1.9,0,1.9,0s-6,19.2-2.4,27.3c3.7,8.1,10.1,3.9,15.4,0.4c5.3-3.5,13.8-9.6,18.7-14.7c5-5.1,6.1-6.4,6.1-6.4l2.6,0.7
	c0,0-10.1,17.1-8.1,20.5c2,3.3,6,5.9,10.8,3.3c4.3-2.3,15.3-8.3,17.3-9.4c1,10.1,5,12.1,10.1,9.6c5.7-2.9,13.5-9.7,13.5-9.7
	s1-1.1,0.9,4.3c-0.1,5.5,0.2,6.7,3.1,7.6c2.9,0.9,3.8-0.5,5.2-4.6c1.4-4.1,6.6-12.2,13.8-16.2c7.2-4.1,8.9-1.4,6.4,3.2
	c-2.5,4.6-6,9.8-2.5,12.3c3.5,2.5,4.5,5.3,9.4,2c4.6-3.1,12.5-7.7,13.5-8.4c0.1,0.7,0.1,1.5,0.2,2.2c0.9,9.2,6.8,8.2,10.2,6.7
	c3.4-1.6,13.2-7.2,13.2-7.2l-1.2,4.7c0,0-21.9,11.7-21.4,23.3c0.5,11.7,9.1,11.7,19.1,4.5c9.9-7.2,10.9-24.4,10.9-24.4l15.5-10
	l0.2-0.2c0,0.1,0,0.3,0,0.4c0.7,6.8,4.9,13.6,10.1,13.6c5.1,0,16-5.3,17.3-13.1c1.3-7.8,0.7-10.8-3.6-14.4c-4.3-3.6-6.1-6.8-2.5-8.6
	c3-1.4,6.2,2,8.1,4.4C472.6,479.1,474,477.7,474.2,477.2L474.2,477.2z M416,512.8c0,0-7,3.1-9.4,7.6c-2.4,4.6,0.1,7.1,4.9,2.8
	C416.4,518.9,416,512.8,416,512.8L416,512.8z M558.1,470.4l-10.9,12.9c0,0-1.2,2-2.2-3.2c-1-5.1-1.5-8-1.5-8s-0.4-0.9,2-2.5
	c2.4-1.6,16.7-10.4,16.7-21.1c0-10.6-5.5-13.4-13.7-12.9c-8.3,0.5-16.9,8.5-16.9,18.8c0,10.3,1.3,12.6,1.3,12.6s-20.5,11.9-16,29.4
	c4.5,17.4,17.9,11.9,21.8,9.8c4-2.2,4.8-4.3,4.8-4.3s1,7.5,6.8,7.5c5.8,0,8.6-2.2,13.2-6.3c4.6-4.1,8.8-9.8,8.8-9.8
	s-3.6-7.3-5.5-6.1c-1.8,1.2-4.8,4-8.3,7.5c-3.5,3.5-6.1,4.8-6.9,2.5s-0.8-2.3-0.8-2.3s11.7-12.6,13.9-16.3c2.1-3.7,1.7-3.7,1.7-3.7
	L558.1,470.4L558.1,470.4z M541.9,459.3c0,0-1.7-5.1,2.8-11.1c4.5-6,9.8-2.7,6.3,2.2C547.5,455.2,541.9,459.3,541.9,459.3
	L541.9,459.3z M534.6,479.4c0,0-6.8,4.5-7.1,11.1c-0.3,6.6,3.3,8.3,6.1,6c2.8-2.3,4-4.1,4-4.1L534.6,479.4L534.6,479.4z
	 M794.7,478.9c1.7-4.5,3.4-13-7.8-13c-15.3,0-18.2,12.9-14.4,16.7c3.8,3.8,9.2,7.8,8.1,11.8c-1.1,4-7.6,10.5-7.6,3.5
	c0-7,0.2-10.8-5-11.8c-0.9-0.2-1.7-0.1-2.4,0.1c-0.3,0.1-0.5,0.1-0.5,0.1l-10.7,7.1c0,0-2.3,1.9-1.2-3c1.2-4.9,4.8-12.5-1.7-15.6
	c-6.4-3.1-9-0.9-11.9,2.3c-2.3,2.7-10,10.6-12.9,15.3c-0.1-0.7-0.1-2.2,0.1-5.4c0.4-5,3.2-11.3,5.7-14.5c2.6-3.3,0.6-3.2-2.6-4.4
	c-3.2-1.3-4.5-2.2-8.4,2c-3.9,4.1-4.8,18.2-4.8,18.2s-6.5,4.2-11.5,8.3c-4.9,4.1-4.1-1-2.4-9.1c1.8-8.1,6.2-15.1,7.8-18.3
	c1.6-3.2-3.1-2.8-6.6-3.6c-3.6-0.8-3.5,0.9-6.6,6c-3.2,5.1-4.5,16.4-4.5,16.4s-11.9,6.9-14.4,8.3c-2.6,1.4-1.7,0-1.7,0
	s4.2-8.5,6.5-14.2c2.3-5.7-3.3-4.9-7-5.6c-3.8-0.7-0.3-4,2.2-8c2.5-4.1-2.2-9.2-5.5-9.4c-3.4-0.2-10,7.5-12.7,12.1
	c-2.8,4.5,2.5,8.4,2.5,8.4s-0.1,0.3-1.9,2.7c-1.8,2.4-6.4,5.5-6.4,5.5s0,0,0,0c-1,0.7-2.2,1.6-3.8,2.6c-5.6,3.6-9,7.2-6.5,0.2
	c2.5-7,6.8-20.2,3.6-21c-3.3-0.8-7-2.3-8.8,4c-1.9,6.4-6.5,13.1-12.2,18.7c-5.7,5.6-9.3,6.7-8.1-0.5c1.5-8.5,3.9-16.2,18.3-22.9
	c0,0,2.8,1.1,2.6-2.3c-0.2-3.4-2.9-8.1-5.7-6.8c-2.8,1.2-10.2,4.2-17.5,12.8c-7.3,8.6-8.1,17.3-7.1,26.4c0.9,9.2,6.8,8.2,10.2,6.7
	c3.4-1.6,13.2-7.2,13.2-7.2l-1.2,4.7c0,0-21.9,11.7-21.4,23.3c0.5,11.7,9.1,11.7,19.1,4.5c9.9-7.2,10.9-24.4,10.9-24.4
	c12.7-8.2,19.8-13.3,30.4-24.5l2.8,1.1c0,0-4.6,10.4-6,12.6c-1.4,2.3-3.9,5.3-0.8,9.4c3.1,4.1,7.2,3.1,7.2,3.1l19.5-11.3
	c0,0-1,2.2,1,6.8c2,4.6,3.9,4.8,7,4.8c3.2,0,15.4-10.5,15.4-10.5l0.7,0.2v31.2c0,0,0,2.3,5.3,3.5c5.3,1.2,6.2,1.3,6.2-2.7
	c0-4,0-23.8,0-23.8s-0.6-2.5,4.6-8.9c5.3-6.5,12-13.7,11.6-12c-0.4,1.7-3.6,18.5-2.7,19.5c0.9,1,4.6,5.9,7.6,3.5
	c3-2.5,9.7-8.3,11.6-9.4c0.4-0.3,0.9-0.6,1.4-0.9c0.8,6.6,5,13.1,10,13.1c5.1,0,16-5.3,17.3-13.1c1.3-7.8,0.7-10.8-3.6-14.4
	c-4.3-3.6-6.1-6.8-2.5-8.6c3-1.4,6.2,2,8.1,4.4C793,480.8,794.4,479.4,794.7,478.9L794.7,478.9z M629.5,513.5c0,0-7,3.1-9.4,7.6
	c-2.4,4.6,0.1,7.1,4.9,2.8C629.9,519.6,629.5,513.5,629.5,513.5L629.5,513.5z"/>
</svg>
