<?xml version="1.0" encoding="utf-8"?>
<!-- Generator: Adobe Illustrator 26.3.0, SVG Export Plug-In . SVG Version: 6.00 Build 0)  -->
<svg version="1.1" id="Layer_1" xmlns="http://www.w3.org/2000/svg" xmlns:xlink="http://www.w3.org/1999/xlink" x="0px" y="0px"
	 width="50px" height="50px" viewBox="0 0 50 50" style="enable-background:new 0 0 50 50;" xml:space="preserve">
<style type="text/css">
	.st0{fill-rule:evenodd;clip-rule:evenodd;fill:#FFFFFF;}
</style>
<g>
	<path class="st0" d="M37.2,18.7v2.7h-2.8v7.4l-2.7,2.6v-10h-1.1L28,18.7C31,18.7,34.1,18.7,37.2,18.7L37.2,18.7z M11.1,30.2v-7.1
		l6.8-6.5c2.9,2.4,4.1,5.3,4,9.1c-0.1,3.2-1.3,5.7-3.6,7.8l-2.1-2.5c1.5-1.7,2.4-3.1,2.5-5.4c0.1-1.5-0.3-2.9-1-4.2l-4.3,4.2
		L11.1,30.2L11.1,30.2z M11,30.2v-7.1l-6.8-6.5c-2.9,2.4-4.1,5.3-4,9.1c0.1,3.2,1.3,5.7,3.6,7.8l2.1-2.5c-1.5-1.7-2.4-3.1-2.5-5.4
		c-0.1-1.5,0.3-2.9,1-4.2l4.3,4.2L11,30.2L11,30.2z M43.5,31.3c-3.5,0-6.3-2.8-6.3-6.3c0-3.5,2.8-6.3,6.3-6.3c3.6,0,6.3,2.8,6.3,6.3
		C49.8,28.6,47.1,31.3,43.5,31.3L43.5,31.3z M43.5,28.4c1.9,0,3.4-1.5,3.4-3.4c0-1.9-1.5-3.4-3.4-3.4c-1.9,0-3.4,1.5-3.4,3.4
		C40.1,26.9,41.6,28.4,43.5,28.4L43.5,28.4z M24.5,21.3l2.7-2.6v10.1l-2.7,2.6V21.3z"/>
</g>
</svg>
