<?xml version="1.0" encoding="utf-8"?>
<!-- Generator: Adobe Illustrator 26.3.0, SVG Export Plug-In . SVG Version: 6.00 Build 0)  -->
<!DOCTYPE svg PUBLIC "-//W3C//DTD SVG 1.1//EN" "http://www.w3.org/Graphics/SVG/1.1/DTD/svg11.dtd" [
	<!ENTITY st0 "fill:#FFFFFF;">
	<!ENTITY st1 "font-family:'PPNeueMontreal-Book';">
	<!ENTITY st2 "font-size:17.6315px;">
	<!ENTITY st3 "letter-spacing:16;">
]>
<svg version="1.1" id="Layer_1" xmlns="http://www.w3.org/2000/svg" xmlns:xlink="http://www.w3.org/1999/xlink" x="0px" y="0px"
	 width="800px" height="800px" viewBox="0 0 800 800" style="enable-background:new 0 0 800 800;" xml:space="preserve">
<g>
	<path style="&st0;" d="M270,517.2c-6,0-11.5,0-17.1,0c-10.5,0-21.1,0.1-31.6-0.1c-2,0-4.4-1.2-6-2.6c-3-2.5-5.6-5.5-8.5-8.1
		c-0.7-0.6-2.5-1-3.1-0.5c-17.7,12.1-37.7,12.4-57.9,11.4c-10.1-0.5-20.1-1.9-29.4-6.1c-19.6-9-29.8-25.1-33.3-45.7
		c-1.4-8.2-1.4-16.6-1.5-24.9c-0.2-31-0.2-62.1,0-93.1c0.1-17.4,5.2-33.1,17.6-45.9c9.4-9.6,21-15.3,34.1-17.3
		c16.3-2.5,32.6-2.4,48.8,1c25.5,5.4,43.2,24.4,46,50.6c1.5,14.5,1.4,29.1,1.5,43.7c0.2,22.8,0,45.6,0,68.5c0,1.2,0,2.5,0,4.8
		c-2.7-2.5-4.8-4.4-6.8-6.3c-9.3-9-18.7-18-27.9-27.1c-1.2-1.2-1.8-3.4-1.8-5.2c-0.1-22.2-0.1-44.5-0.1-66.7c0-9.1-2.7-17-10.5-22.2
		c-3-2-6.7-4-10.1-4.1c-11.2-0.4-22.5-0.9-33.6,0.3c-12.2,1.3-19.7,10.1-20.1,22.5c-0.5,18.9-0.4,37.8-0.4,56.6
		c0,17.3,0,34.5,0.1,51.8c0.1,17.8,10,27.8,27.9,27.8c8.4,0,17,0.3,25.3-0.8c13.4-1.7,20.6-10.2,21.3-23.8
		c0.3-6.6,0.1-13.2,0.1-19.9C200,438.2,264.4,506.1,270,517.2z"/>
	<path style="&st0;" d="M678.5,424.9c-8.1,0-16.2,0-24.3,0c-3.2,0-5.7-1-6.7-4.4c-1-3.3,0.5-6.4,3.9-7.4c1.7-0.5,3.7-0.6,5.5-0.6
		c14-0.1,28-0.1,42.1-0.1c0.7,0,1.4,0,2.1,0c2.2-0.1,4.8,0.1,4.9-3c0.1-3.2-2.5-3.1-4.8-3.1c-11.8,0-23.6,0-35.5,0
		c-2.1,0-4.2-0.1-6.2-0.4c-7.7-1.4-12.9-7.6-12.8-15c0.1-8,5.4-14.1,13.4-15.3c1.7-0.3,3.5-0.3,5.2-0.3c14.8,0,29.7,0,44.5,0
		c1,0,2.1,0,3.1,0.2c3,0.6,4.6,2.6,5.1,5.4c0.5,2.8-0.9,4.8-3.4,5.8c-1.8,0.7-3.8,1.1-5.7,1.1c-14.3,0.1-28.5,0.1-42.8,0.1
		c-0.9,0-1.9,0-2.8,0c-1.9,0.1-4,0.2-4,2.8c0,2.7,2,3.1,4.1,3.1c12.4,0,24.8,0,37.2,0.1c2.1,0,4.2,0.1,6.2,0.6
		c7.5,1.8,12.4,8.7,11.7,16.3c-0.7,7.7-6.9,13.7-14.6,14.2c-0.3,0-0.7,0-1,0C694.8,424.9,686.6,424.9,678.5,424.9
		C678.5,424.9,678.5,424.9,678.5,424.9z"/>
	<path style="&st0;" d="M275.1,424.8c-7.6,0-15.3,0-22.9,0c-1.3,0-2.6,0-3.8-0.2c-2.8-0.5-4.5-2.2-4.9-5.1c-0.3-3,0.7-5.4,3.7-6.3
		c1.8-0.6,3.9-0.8,5.8-0.8c14.4-0.1,28.7-0.1,43.1-0.1c1.3,0,2.7,0.1,3.8-0.4c0.9-0.4,2.1-1.8,2.1-2.6c-0.1-1.1-1.2-2.4-2.2-2.9
		c-1-0.5-2.5-0.3-3.8-0.3c-11.7,0-23.4,0.2-35.1-0.1c-3.6-0.1-7.5-0.8-10.6-2.5c-6.3-3.3-8.6-10-6.8-17c1.6-6.5,7.3-11.1,14.6-11.3
		c6.6-0.2,13.2-0.1,19.8-0.1c9.5,0,19,0,28.5,0c5,0,7.9,2.3,8,6.2c0.1,3.6-3.3,6.3-8.1,6.3c-14.7,0.1-29.4,0-44.2,0
		c-1.4,0-2.9-0.2-4.1,0.2c-1,0.4-2.3,1.7-2.3,2.5c0.1,1.1,1.2,2.4,2.3,2.9c1,0.5,2.5,0.2,3.8,0.2c12.6,0,25.3-0.1,37.9,0.1
		c6.3,0.1,11,3.2,13.8,9c2.7,5.7,1.9,11.1-1.8,16c-3.1,4-7.2,6-12.3,6C291,424.7,283.1,424.7,275.1,424.8
		C275.1,424.7,275.1,424.7,275.1,424.8z"/>
	<path style="&st0;" d="M488.6,402.4c0-4.9-0.1-9.7,0-14.6c0.2-8,4.7-12.4,12.6-12.5c13.3-0.1,26.6-0.1,39.9,0
		c11.9,0.2,19.5,8.2,18.6,19.7c-0.2,2.9-1.6,6-3.3,8.5c-1.8,2.6-2,4.6-0.2,7.2c1.2,1.6,2.2,3.3,3,5.1c1.5,3.2,0.6,6.1-2.2,7.8
		c-2.8,1.6-5.5,1.1-7.5-1.8c-1.8-2.4-3.3-5-4.8-7.6c-1.3-2.2-3-3.3-5.6-3.3c-11.6,0.1-23.2,0.1-34.7,0c-2.8,0-3.8,1.2-3.6,3.8
		c0.1,1.4,0,2.8-0.2,4.2c-0.6,3.5-2.9,5.6-6,5.5c-3.4-0.1-5.7-2.3-5.9-6c-0.2-4.4-0.1-8.8-0.1-13.2
		C488.6,404.3,488.6,403.3,488.6,402.4C488.6,402.4,488.6,402.4,488.6,402.4z M523,398.9C523,398.9,523,398.9,523,398.9
		c6.2,0,12.5,0.1,18.7,0c4.3,0,6.9-2.8,6.4-6.4c-0.4-3.2-2.6-4.9-6.5-4.9c-11.1,0-22.2,0-33.3,0c-8.5,0-7.5-0.7-7.7,7.6
		c-0.1,2.9,1.1,3.8,3.9,3.8C510.7,398.8,516.9,398.9,523,398.9z"/>
	<path style="&st0;" d="M442.1,424.6c-6.9,0-13.9,0.4-20.8-0.1c-9.7-0.6-17.8-9-18.3-18.7c-0.2-4.6-0.1-9.3,0.5-13.9
		c1.1-9,9-16.3,18.7-16.6c12.8-0.4,25.7-0.5,38.6,0c11.2,0.4,18.8,8,19.8,19.1c0.4,4.1,0.3,8.4,0,12.5c-0.9,9.4-8.5,16.8-18.2,17.5
		c-6.7,0.5-13.4,0.1-20.1,0.1C442.1,424.5,442.1,424.5,442.1,424.6z M441.9,412.4C441.9,412.4,441.9,412.4,441.9,412.4
		c5.9,0,11.8,0.1,17.7-0.1c5.4-0.2,8.5-3.3,8.8-8.7c0.1-2.6,0.2-5.3-0.1-8c-0.4-4.8-3.3-7.8-8.1-7.9c-12.4-0.2-24.8-0.2-37.1,0
		c-4.4,0.1-7.3,2.9-7.7,7.4c-0.3,2.6-0.3,5.3-0.2,8c0.3,6.4,3.2,9.2,9.6,9.3C430.6,412.5,436.2,412.4,441.9,412.4z"/>
	<path style="&st0;" d="M355.6,375.2c7.1,0,14.1-0.2,21.2,0c8.2,0.3,14.8,5.3,17,12.5c2.3,7.6,0.2,15.4-6.5,19.6
		c-3.3,2.1-7.7,3.5-11.6,3.6c-12.1,0.5-24.3,0.3-36.5,0.1c-3,0-4.3,0.8-4,3.9c0.1,1.5,0,3-0.3,4.5c-0.6,3.4-3.1,5.3-6.4,5.1
		c-3.3-0.2-5.6-2.3-5.7-5.8c-0.2-4-0.1-8.1-0.1-12.2c0-6.4,0-12.7,0-19.1c0.1-7.7,4.6-12.4,12.3-12.5
		C341.9,375.1,348.8,375.1,355.6,375.2C355.6,375.2,355.6,375.2,355.6,375.2z M357.6,387.7c-5,0-9.9,0-14.9,0
		c-8.5,0.1-7.2-1.3-7.5,7.6c-0.1,2.6,1,3.4,3.5,3.4c12.4-0.1,24.8,0,37.1-0.1c3.9,0,6.4-2.1,6.5-5.2c0.1-3.4-2.3-5.7-6.3-5.7
		C369.8,387.7,363.7,387.7,357.6,387.7z"/>
	<path style="&st0;" d="M598.3,404.1c0-4.2-0.1-8.3,0-12.5c0.1-2.8-0.9-4-3.8-3.9c-6.2,0.1-12.5,0.3-18.7-0.1
		c-2.2-0.2-5.1-1.5-6.3-3.2c-2.8-3.8,0.2-8.9,5.1-9.1c5.9-0.3,11.8-0.2,17.7-0.1c1,0,2.2,0.8,2.9,1.5c4.6,4.4,9.2,8.8,13.5,13.4
		c1.1,1.1,1.9,2.9,1.9,4.5c0.2,7.6,0.1,15.3,0.1,22.9c0,4.6-2.3,7.2-6.1,7.3c-3.6,0.1-6-2.4-6.2-6.9
		C598.2,413.3,598.4,408.7,598.3,404.1C598.4,404.1,598.3,404.1,598.3,404.1z"/>
	<path style="&st0;" d="M611,375.2c8.5,0,15.9-0.1,23.3,0.1c3.3,0.1,5.7,2.7,5.9,5.8c0.2,3.2-1.7,5.8-5.2,6.3
		c-3.4,0.5-6.9,0.4-10.4,0.4c-0.6,0-1.4-0.3-1.8-0.8C619.1,383.3,615.4,379.6,611,375.2z"/>
	<text transform="matrix(1 0 0 1 354.2897 451.9389)" style="&st0; &st1; &st2; &st3;">QUALITY WEAR</text>
</g>
</svg>
