<?xml version="1.0" encoding="UTF-8"?>
<svg id="uuid-228c28ac-bf06-43c3-89b7-4d7039249061" xmlns="http://www.w3.org/2000/svg" width="12.3mm" height="4.3mm" viewBox="0 0 37.6 14.9">
  <defs>
    <style>
      .uuid-902dcbee-47e4-48cb-bcd3-797267d2b846, .uuid-376d1e7d-337e-45f3-9a26-899b0fe8038f {
        fill: #FFFFFF;
      }

      .uuid-376d1e7d-337e-45f3-9a26-899b0fe8038f {
        stroke: #FFFFFF;
        stroke-miterlimit: 10;
      }
    </style>
  </defs>
  <g id="uuid-eb9ae00c-e3c7-4bf0-9887-6b132c62574d" data-name="Layer 1">
    <g>
      <path class="uuid-902dcbee-47e4-48cb-bcd3-797267d2b846" d="M13.7,2.5c-.2-.4-.5-.9-.8-1.2-.4-.4-.7-.5-2.1-.5h-2.5V7.6c0,1.1,.2,1.2,2.6,1.3v.4H3.6v-.4c2.4,0,2.6-.2,2.6-1.3V.9H3.8c-1.4,0-1.8,0-2.2,.5-.3,.3-.5,.6-.8,1.1H0C.2,1.6,.3,.8,.4,0H1c.4,.3,.7,.3,1.4,.3H12.4c.7,0,.9,0,1.3-.3h.6c0,.7,.1,1.6,.2,2.5h-.8Z"/>
      <path class="uuid-902dcbee-47e4-48cb-bcd3-797267d2b846" d="M24.6,3.9c-.9,0-1.1,.2-1.5,.5-.3,.3-.7,.5-1.2,.9,.6,.3,1.9,1,2.2,1.4h0c-.7,0-1.5-.1-1.6-.2-.2,0-.8-.4-1.2-.7-1,.7-1.8,.9-2.8,.9-1.7,0-2.6-.7-2.6-1.3,0-.6,.7-.9,2-1.3-.6-.3-1-.6-1-1,0-.6,1-1.1,2.2-1.1s2,.4,2,1c0,.3-.3,.5-.6,.6-.3,.1-.6,.2-1.1,.4,.4,.2,1.5,.7,2.4,1.1,.3-.3,.6-.5,.8-.8,.3-.3,.1-.4-.8-.5v-.2h3v.2Zm-5.8,2.4c.9,0,1.4-.2,2.1-.6-.7-.4-1.6-.8-2.7-1.3-.9,.3-1.2,.6-1.2,1,0,.7,1,1,1.8,1Zm0-4c-.7,0-1.1,.3-1.1,.7s.3,.6,1.1,.9c.7-.3,1.1-.5,1.1-.9,0-.4-.4-.7-1.1-.7Z"/>
      <path class="uuid-902dcbee-47e4-48cb-bcd3-797267d2b846" d="M31.6,0c1.8,0,3.2,.2,4.3,.6,1,.4,1.7,1.1,1.7,2,0,2.1-3.2,2.9-5.6,2.9s-.5,0-.7,0l-1.7-.3v2.2c0,1.2,.2,1.2,2.5,1.4v.4h-7v-.4c2.2-.1,2.3-.2,2.3-1.4V1.8c0-1.3-.3-1.3-2.3-1.4v-.4h6.5Zm-2.1,4.8c.3,0,1,.2,1.9,.2,1.7,0,3.8-.5,3.8-2.3s-1.8-2.2-4-2.2-1.3,0-1.4,.2c-.2,0-.3,.3-.3,.7v3.5Z"/>
      <g>
        <path class="uuid-902dcbee-47e4-48cb-bcd3-797267d2b846" d="M2.2,11.7c1.1,0,1.7,.1,2.2,.4,.4,.2,.6,.6,.6,1s-.4,1-.9,1.3c-.6,.3-1.3,.4-2.2,.4H.1c.7-.2,.7-.2,.7-.6v-1.9c0-.4,0-.4-.7-.5H2.2Zm-.8,2.3c0,.4,.2,.5,.8,.5,1.4,0,2.1-.6,2.1-1.4s-.3-.9-.9-1.1c-.3-.1-.8-.2-1.3-.2s-.5,0-.6,0c0,0,0,0,0,.3v2Z"/>
        <path class="uuid-902dcbee-47e4-48cb-bcd3-797267d2b846" d="M9.8,14.1c0,.1-.3,.6-.3,.8h-3.7c.7-.2,.8-.2,.8-.6v-1.9c0-.4,0-.4-.7-.5h2.3c.7-.1,1-.1,1.1-.1,0,.1,0,.5,0,.7h-.2c0-.1-.1-.2-.2-.3-.1-.2-.3-.2-.8-.2h-.7c-.2,0-.3,0-.3,.2v1h.8c.6,0,.6,0,.7-.4h.2v1h-.2c0-.3-.2-.4-.7-.4h-.8v.9c0,.3,.2,.4,.5,.4h.7c.5,0,.5,0,.7-.2,.1,0,.3-.3,.4-.4h.2Z"/>
        <path class="uuid-902dcbee-47e4-48cb-bcd3-797267d2b846" d="M12.3,11.7c.5,0,1,0,1.3,.2,.3,.1,.5,.4,.5,.7,0,.7-.9,1-1.7,1s-.2,0-.2,0h-.5v.7c0,.4,0,.4,.8,.5h-2.1c.7,0,.7,0,.7-.5v-1.9c0-.4,0-.4-.7-.5h2Zm-.6,1.5c0,0,.3,0,.6,0,.5,0,1.1-.2,1.1-.8s-.5-.7-1.2-.7-.4,0-.4,0c0,0,0,0,0,.2v1.2Z"/>
        <path class="uuid-902dcbee-47e4-48cb-bcd3-797267d2b846" d="M17.4,11.7c1.3,0,2.5,.6,2.5,1.6s-1.1,1.7-2.5,1.7-2.5-.7-2.5-1.6,1-1.6,2.6-1.6Zm-.2,.2c-.9,0-1.6,.4-1.6,1.3s.8,1.5,1.9,1.5,1.6-.4,1.6-1.3-.8-1.5-1.8-1.5Z"/>
        <path class="uuid-902dcbee-47e4-48cb-bcd3-797267d2b846" d="M25.1,14.9c0,0-.2,0-.3,0-.6,0-.9-.1-1.2-.4-.3-.2-.6-.5-.8-.8-.2-.2-.3-.2-.6-.2h-.3v.7c0,.4,0,.4,.7,.5h-2c.6,0,.7,0,.7-.5v-1.9c0-.4,0-.4-.7-.5h1.9c.6-.1,.9,0,1.2,0,.3,.1,.5,.3,.5,.6s-.4,.7-1,.8c.1,.1,.5,.5,.7,.7,.3,.3,.4,.4,.6,.5,.2,.1,.4,.2,.6,.2h0Zm-2.8-1.4c.4,0,.6,0,.8-.1,.3-.1,.4-.3,.4-.6,0-.5-.5-.7-1.1-.7s-.3,0-.4,0c0,0,0,0,0,.2v1.2h.4Z"/>
        <path class="uuid-902dcbee-47e4-48cb-bcd3-797267d2b846" d="M29.2,12.5c0-.2-.2-.3-.2-.4-.1-.1-.2-.2-.6-.2h-.8v2.3c0,.4,0,.4,.8,.5h-2.2c.7,0,.8,0,.8-.5v-2.3h-.7c-.4,0-.5,0-.7,.2,0,0-.2,.2-.3,.4h-.2c0-.3,0-.6,.1-.9h.2c.1,.1,.2,.1,.4,.1h3c.2,0,.3,0,.4-.1h.2c0,.2,0,.6,0,.8h-.2Z"/>
        <path class="uuid-902dcbee-47e4-48cb-bcd3-797267d2b846" d="M34,14.1c0,.1-.3,.6-.3,.8h-3.7c.7-.2,.8-.2,.8-.6v-1.9c0-.4,0-.4-.7-.5h2.3c.7-.1,1-.1,1.1-.1,0,.1,0,.5,0,.7h-.2c0-.1-.1-.2-.2-.3-.1-.2-.3-.2-.8-.2h-.7c-.2,0-.3,0-.3,.2v1h.8c.6,0,.6,0,.7-.4h.2v1h-.2c0-.3-.2-.4-.7-.4h-.8v.9c0,.3,.2,.4,.5,.4h.7c.5,0,.5,0,.7-.2,.1,0,.3-.3,.4-.4h.2Z"/>
        <path class="uuid-902dcbee-47e4-48cb-bcd3-797267d2b846" d="M37.2,12.5c-.1-.3-.3-.6-1.1-.6s-.8,.3-.8,.5,.3,.5,1,.7c.9,.3,1.3,.5,1.3,1s-.7,.9-1.7,.9-.9,0-1.2-.2c0-.1-.2-.5-.2-.7h.2c.2,.3,.5,.7,1.3,.7s.9-.2,.9-.5-.3-.5-1-.7c-.8-.3-1.2-.5-1.2-.9s.6-.8,1.6-.8,.8,0,1,0c0,.2,0,.4,.1,.7h-.2Z"/>
      </g>
      <line class="uuid-376d1e7d-337e-45f3-9a26-899b0fe8038f" x1="0" y1="10.4" x2="37.6" y2="10.5"/>
    </g>
  </g>
</svg>