<?xml version="1.0" encoding="UTF-8"?>
<svg id="uuid-e9e61575-10f1-4868-bd71-5ae05abb4dd3" xmlns="http://www.w3.org/2000/svg" width="11.1mm" height="9.8mm" viewBox="0 0 34.2 30.6">
  <defs>
    <style>
      .uuid-5cf7c834-7db1-4545-9b5a-314aa1e738f6 {
        fill: #FFFFFF;
      }
    </style>
  </defs>
  <g id="uuid-ef92cedf-4906-42c2-a444-49df392dd9a1" data-name="Layer 1">
    <g>
      <path class="uuid-5cf7c834-7db1-4545-9b5a-314aa1e738f6" d="M22.2,7.2c0,.1-.2,.3-.3,.5,0,0-.1,.2-.2,.2-.2,.2-.3,.2-.4-.1,0,0-.1,0-.2,0,0,0-.1,0-.2,0-.1-.1-.2-.3,0-.4,0,0,.2-.2,.3-.1,0,0,.2,.1,.3,.2,.1,0,.2-.2,0-.3-.3-.3-.2-.4,0-.7,.7-.7,.8-1.6,.2-2.4-.3-.4-.7-.4-1.2-.4,0,.2,.1,.4,.1,.6,0,.4,0,.7,0,1.1,0,.5-.2,.9,0,1.4-.1,0-.2,0-.3,0-.1,0-.3,0-.3,.2,0,0,0,0-.1,.1,0,0,0,0-.2,.1q.5,0,.6,.2t-.6,0c0,.2,.3,.4,.6,.4,.2,0,.5-.1,.7-.2q.2,.4,.8,.2c-.2,.5-.4,1-.6,1.5,0,.1-.1,.1-.2,.1-1.2,0-2.4,0-3.6,0-.9,0-1.9,0-2.8,0-.4,0-.7,0-1.1,0-.1,0-.2,0-.2-.1-.2-.5-.4-1-.6-1.5,.5,.1,.6,0,.8-.3,.2,.2,.5,.4,.8,.3,.2,0,.4-.2,.5-.4-.3,.2-.5,.2-.6-.1,0-.4,.3-.3,.6-.2-.2-.3-.5-.6-.9-.6,.2-.6,0-1.2,0-1.8,0-.4,0-.8,.1-1.2,0,0,0-.1,0-.2-.5,0-.9,0-1.2,.4-.6,.7-.5,1.8,.1,2.4,.3,.2,.3,.4,0,.6-.1,.2-.1,.3,.1,.4,0-.1,0-.3,.3-.3,0,0,.2,.1,.2,.2,0,.2,0,.3-.1,.4l-.3-.2s0,0,0,0c0,.3-.2,.3-.4,.1-.2-.2-.3-.4-.4-.6,0,0,0-.1-.1-.2,0,.2-.2,.4-.4,.3,0,0-.2-.2-.2-.3,0-.2,0-.4,.3-.4v-.2c-.3,.1-.5,.1-.6,0-.1-.2,0-.4,.2-.6,0,0,0,0,0-.1,0,0,0,0-.1-.1-.2,0-.3-.2-.3-.3,0-.2,0-.3,.3-.4,.1,0,.1-.2,0-.3-.2-.1-.2-.3-.1-.5,0,0,.2-.2,.3-.2,.3,0,.3,0,.2-.3,0,0,0-.2,0-.3,0-.3,.3-.3,.6,0,.1,0,.2-.1,.1-.3,0,0,0-.1,0-.2,0-.2,0-.3,.2-.3,.2,0,.3,.1,.3,.3,0,0,0,0,0,.2h.2c0-.3-.2-.7,.3-.7,.2,0,.2,.2,.2,.6h.3c0-.2,0-.4,.2-.5,0,0,.2,0,.2,0,.2,.2,.1,.4,0,.6,.1,0,.2,0,.3,0,.5-.3,1.1-.3,1.6-.2,.3,0,.4,0,.4-.3,0-.2,0-.5,.3-.6,.3-.2,.2-.4,.2-.6h-.4V.5h.4V0h.4V.5h.4v.5h-.4c0,.2,0,.5,.2,.7,.2,.2,.3,.4,.2,.7,0,.1,0,.2,.2,.2,0,0,.2,0,.3,0,.5,0,1.1,0,1.5,.3,0,0,.2,0,.3,0,0-.2-.1-.4,0-.6,0,0,.2,0,.3,0,.2,0,.2,.3,.2,.5h.2c0,0,0-.1,0-.2,0-.2,.1-.3,.3-.3,.1,0,.3,.1,.3,.3,0,0,0,0,0,.1,0,.2,0,.2,.2,.2,.1-.4,.2-.5,.4-.4,.2,0,.2,.3,0,.6,0,0,0,0,0,0,0,0,0,0,0,0,.2-.2,.4-.2,.5,0,0,.1,0,.3,0,.4,0,0,0,.1,0,.2,0,0,.1,0,.2,0,0,0,.2,0,.3,.2,0,.2,0,.3,0,.5-.2,.2-.2,.2,0,.3,0,0,.2,.2,.2,.4,0,.1,0,.3-.3,.3,0,0-.1,0-.2,.1,0,0,0,0,.1,.1,.2,.1,.2,.4,.1,.5,0,.2-.2,.2-.5,0v.2c.2,0,.3,.2,.2,.5,0,0-.1,.2-.2,.2-.1,0-.3-.1-.4-.2Zm-7.8-3.4c.1,0,.2,.1,.3,0,0-.1,0-.3,0-.4,0-.2-.3-.2-.3,0,0,.1,0,.3,0,.4,0,0-.2,0-.3,0,0,0-.1,.2,0,.3,0,0,.1,.2,.2,.3,0,0,0,0-.1,0-.1,0-.3,.2-.2,.3,0,.1,0,.3,.2,.2,.2,0,.2-.1,.2-.3,0,0,0-.2-.1-.2,.3-.1,.3-.2,.2-.5Zm5.7,.6s.1,0,.1-.1c0-.1,0-.2,0-.3,0,0-.2,0-.2,0,0,0-.1,.2-.1,.3,0,.2,.1,.2,.3,.2,0,0-.1,0-.1,.1,0,.1,0,.3,0,.4,0,0,.2,0,.2,0,0,0,.1-.2,.1-.3,0-.2-.1-.2-.3-.2Zm-.5,3.1s0,0-.1-.1c-.2-.2-.4-.3-.6-.5-.1-.1-.1-.2,0-.3,.3-.5,.6-1.1,.7-1.7,0-.4,.1-.8-.2-1.1-.3-.3-.7-.5-1.2-.5-.1,0-.2,0-.2,.2-.2,1.1-.2,2.2,.2,3.3-.2,0-.4,.2-.5,.3-.1,.1-.2,.3-.3,.5q.4-.2,.6,.2c0,0-.1,.3-.2,.3-.1,0-.3,0-.4-.1h0c.1,.1,.3,.3,.4,.3,.3,.1,.5,0,.8-.3,.4,.4,1,.4,1.2,0-.2,0-.4,.2-.5,0,0-.2,0-.3,0-.4,.1,0,.3,0,.4,0Zm-4.9,.3c.2,.3,.7,.4,1,.2,.2-.1,.3-.2,0-.4,0,0,0-.1,0-.1,0-.1,0-.3,.2-.3,.1,0,.2,0,.3,.1,0,.1,0,.3,0,.4,0,0,0,.1,0,.2,.1,.2,.3,.3,.5,.3,.2,0,.4-.1,.6-.3-.2,0-.4,.3-.5,0,0-.1-.1-.3,0-.4,.2-.2,.3,0,.5,0-.1-.4-.5-.6-.9-.8,0-.1,.1-.2,.2-.3,.3-.9,.4-1.9,.2-2.9,0-.1,0-.2-.2-.2-.3,0-.6,.1-.9,.2-.5,.2-.7,.6-.6,1.2,.1,.7,.3,1.3,.7,1.8,0,.1,0,.2,0,.3-.2,.1-.3,.3-.5,.4,0,0-.1,.1-.2,.2q.4-.1,.6,.2-.2,.3-.6,.3Zm3.5,1.4c0,.2,.2,.3,.4,.3,0,0,.2-.2,.2-.3,0,0,0-.2-.2-.3-.2-.1-.4,0-.5,.2,0,0-.2,0-.2-.1-.5-.3-1.1-.4-1.6,0-.2,0-.3,.1-.5,0,0-.1-.3,0-.4,0,0,.1,0,.3,0,.4,.1,.1,.3,.1,.5,0,0,0,0-.1,.1-.2,.3,.1,.6,.3,.9,.4,.1,0,.3,0,.4,0,.3-.1,.6-.2,.9-.4Zm3.2,.1c-.4-.2-.8-.3-1.1-.5,0,0,0,0,0,0-.4,0-.8,.2-1.2,.3h0c.4,.2,.7,.4,1.1,.6,0,0,0,0,.1,0,.4-.1,.8-.2,1.2-.4Zm-8.3-.1c.3,.1,.5,.2,.7,.3,.3,.1,.6,.2,.9,0,.2,0,.3-.2,.5-.2,0,0,0,0,.1,0-.3-.1-.7-.2-1-.3,0,0-.1,0-.2,0-.4,.1-.7,.3-1.1,.4Zm4.1-4.2c-.2,.2-.2,.3,0,.5,0,0,.2,0,.3,0,.1-.1,0-.3,0-.5,.2-.2,.2-.4,0-.5,0,0-.2,0-.3,0-.1,0,0,.3,0,.5Zm0,1.2c.2-.2,.2-.3,.1-.5,0-.1-.2-.1-.3,0-.1,.1,0,.3,0,.5-.2,.2-.3,.3-.1,.5,0,0,.2,0,.2,0,.2-.1,.1-.3,0-.5Zm2.6,.2c-.2,0-.3,.1-.3,.3,0,.2,.1,.3,.3,.3,.2,0,.3-.1,.3-.3,0-.2-.1-.4-.3-.4Zm-5,.2c0-.2-.1-.3-.3-.3-.2,0-.3,.2-.3,.3,0,.2,.1,.3,.2,.3,.1,0,.3-.2,.3-.4Zm5.3-2.9c0-.2-.1-.3-.3-.3,0,0-.2,.2-.2,.3,0,.1,0,.3,.2,.3,0,0,.2-.2,.3-.2Zm-5.6,1.5c0,0-.2-.2-.3-.2-.2,0-.2,.1-.2,.3,0,.1,0,.3,.2,.3,.2,0,.2-.1,.3-.3Zm5.8,.7c0,0-.1-.2-.2-.2-.2,0-.2,.1-.2,.3,0,.1,0,.3,.2,.3,.2,0,.2-.1,.2-.4Zm-5.7,0c0-.2,0-.3-.2-.3-.2,0-.2,.1-.2,.3,0,.1,0,.3,.2,.3,.2,0,.2-.1,.2-.3Zm5.3-.6c.1,.1,.2,.3,.3,.3,.1,0,.2-.1,.2-.2,0-.1,0-.3-.2-.3,0,0-.2,.1-.3,.2Zm-2.3-1.2l-.3-.3c0,0-.2,.2-.2,.3,0,0,.1,.2,.2,.3l.3-.3Zm-.6-.6c.1,.1,.2,.2,.3,.3,.1,0,.2-.1,.2-.3,0-.1,0-.3-.2-.2,0,0-.2,.1-.3,.2Zm2.3-.4l-.2-.2c0,0-.2,.1-.2,.2,0,0,.1,.2,.2,.2,0,0,.1-.1,.3-.2Zm-4,0c.1,0,.2,.2,.3,.2,0,0,.2-.1,.2-.2,0,0-.1-.2-.2-.2l-.3,.2Zm0,.2l-.2-.2c0,0-.2,.1-.2,.2,0,0,0,.1,.1,.2l.2-.2Zm4.4,0l-.2-.2c0,0-.1,.1-.1,.2,0,0,0,.1,.2,.2l.2-.2Zm-1,0c0-.1,.1-.2,.1-.2,0,0,0-.1-.1-.2,0,0-.1,0-.1,.1,0,0,0,.1,.1,.2Zm-2.7-.5c0,.1-.1,.2-.1,.2,0,0,0,.1,.1,.2,0,0,.1-.1,.1-.2,0,0,0-.1-.1-.2Zm.4,0c0,0-.1,.2-.1,.2,0,0,0,0,0,.1,0,0,0,0,.1-.1,0,0,0,0,0-.2Zm2.2,.3h0v-.2c-.2,0-.2,0-.2,.1,0,0,0,.1,.1,.1,0,0,.1,0,.2,0Z"/>
      <path class="uuid-5cf7c834-7db1-4545-9b5a-314aa1e738f6" d="M30,17.4v.2c0,1.1,0,2.2,0,3.3,0,.2,0,.3-.3,.3-.3,0-.7,0-1,0v-6.2c.4,0,.7,0,1.1,0,0,0,.1,0,.2,.1,.9,1.2,1.8,2.3,2.7,3.5,0,0,0,.1,.2,.1v-3.8c.2,0,.3,0,.5,0,.2,0,.4,0,.7,0,.1,0,.2,0,.2,.2,0,0,0,0,0,.1,0,1.9,0,3.7,0,5.6,0,.3,0,.3-.3,.3-.3,0-.6,0-.9,0-.2-.1-.4-.4-.5-.6-.8-1-1.5-2-2.3-2.9,0,0-.1-.1-.2-.2h0Z"/>
      <path class="uuid-5cf7c834-7db1-4545-9b5a-314aa1e738f6" d="M14.7,21.2v-6.2h.3c.8,0,1.6,0,2.3,0,.4,0,.8,0,1.2,.3,.9,.5,1.1,2,0,2.5,0,0,0,0,0,0,0,0,.1,0,.2,0,1.2,.5,1.3,2,.3,2.8-.4,.3-.8,.4-1.3,.4-.9,0-1.9,0-2.8,0,0,0,0,0,0,0Zm1.3-1.1c.5,0,1.1,0,1.6,0,.4,0,.7-.3,.7-.7,0-.4-.2-.8-.7-.8-.5,0-1,0-1.6,0,0,0,0,0,0,.1,0,.5,0,.9,0,1.4Zm0-2.7c.5,0,.9,0,1.4,0,.3,0,.6-.3,.5-.6,0-.3-.3-.6-.6-.6-.3,0-.5,0-.8,0-.2,0-.3,0-.5,0v1.3Z"/>
      <path class="uuid-5cf7c834-7db1-4545-9b5a-314aa1e738f6" d="M9,19.1c0,.4,0,.7,0,1.1,0,.3,0,.5,0,.8,0,.1,0,.2-.1,.1-.4,0-.7,0-1.1,0v-6.2s.1,0,.2,0c.9,0,1.7,0,2.6,0,1,0,1.9,.6,2,1.6,.2,.9-.1,1.9-1,2.3,0,0,0,0,0,0l1.3,2.3c-.5,0-.9,0-1.3,0,0,0-.1,0-.2-.1-.3-.6-.6-1.1-.9-1.7,0-.1-.1-.2-.3-.2-.3,0-.7,0-1.1,0Zm0-1.2c.5,0,1,0,1.4,0,.4,0,.8-.3,.8-.8,0-.5-.2-.9-.7-.9-.5,0-1,0-1.6,0v1.7Z"/>
      <path class="uuid-5cf7c834-7db1-4545-9b5a-314aa1e738f6" d="M22.2,26.9c.3-.3,.6-.6,.9-1,.5-.5,.9-1,1.4-1.5,0,0,.2-.1,.3-.1,.4,0,.9,0,1.3,0,0,0-.1,.1-.2,.2-.7,.7-1.3,1.5-2,2.2-.1,.1-.1,.2,0,.4,.7,1.1,1.5,2.1,2.2,3.2,0,0,0,.1,.1,.2-.5,0-1,0-1.4,0,0,0-.1,0-.2-.1-.5-.8-1.1-1.5-1.6-2.3,0,0,0-.1-.2-.2-.3,.3-.5,.5-.8,.8,0,0,0,.1,0,.2,0,.5,0,.9,0,1.4,0,0,0,.2,0,.2h-1.3v-6.2h1.3v2.6h0Z"/>
      <path class="uuid-5cf7c834-7db1-4545-9b5a-314aa1e738f6" d="M8.1,24.3c-.7,.8-1.4,1.6-2.1,2.3-.2,.2-.2,.3,0,.5,.7,1,1.4,2.1,2.2,3.2,0,0,0,.1,.1,.2-.5,0-1,0-1.4,0,0,0-.1,0-.2-.1-.5-.8-1.1-1.5-1.6-2.3,0,0,0-.1-.2-.2-.3,.3-.5,.6-.8,.8,0,0,0,.1,0,.2,0,.5,0,1.1,0,1.6h-1.3v-6.2c.4,0,.8,0,1.2,0,0,0,.1,.1,.1,.2,0,.7,0,1.4,0,2.1,0,.1,0,.2,0,.4,0,0,.1-.1,.2-.2,.7-.8,1.4-1.5,2.1-2.3,.1-.1,.2-.2,.4-.2,.4,0,.8,0,1.3,0Z"/>
      <path class="uuid-5cf7c834-7db1-4545-9b5a-314aa1e738f6" d="M27.1,21.2c-.5,0-.9,0-1.3,0,0,0-.1,0-.1-.2-.1-.3-.3-.7-.4-1.1,0-.1-.1-.2-.3-.2-.7,0-1.4,0-2,0-.1,0-.2,0-.2,.2-.1,.4-.3,.7-.4,1.1,0,.1,0,.2-.2,.2-.4,0-.8,0-1.2,0,0,0,0-.2,0-.2,.7-1.9,1.5-3.8,2.2-5.8,0-.2,.1-.2,.3-.2,.3,0,.7,0,1,0,.2,0,.3,0,.4,.2,.6,1.5,1.2,3.1,1.8,4.6,.2,.4,.3,.9,.5,1.4Zm-2.3-2.6l-.7-2h0l-.7,2h1.5Z"/>
      <path class="uuid-5cf7c834-7db1-4545-9b5a-314aa1e738f6" d="M0,15c.4,0,.8,0,1.1,0,.2,0,.1,.1,.1,.2,0,.9,0,1.8,0,2.7,0,.4,0,.8,0,1.1,.1,.7,.7,1.1,1.5,1.1,.7,0,1.2-.6,1.2-1.3,0-.9,0-1.9,0-2.8,0-.3,0-.6,0-.8,0-.1,0-.2,.2-.2,.3,0,.6,0,.9,0,.1,0,.2,0,.2,.2,0,1.3,0,2.6,0,3.8,0,1.2-1,2.2-2.2,2.3-.9,.1-1.7,0-2.4-.7-.5-.5-.7-1-.7-1.7,0-1.3,0-2.5,0-3.8,0,0,0,0,0-.1Z"/>
      <path class="uuid-5cf7c834-7db1-4545-9b5a-314aa1e738f6" d="M18.2,26.2c-1.1-1.2-2.5-.9-3.2-.2-.8,.8-.8,2,0,2.8,.7,.7,2.1,1,3.2-.2l.8,.8c-.4,.7-1.8,1.5-3.4,1.1-1.4-.3-2.4-1.5-2.5-2.9-.1-1.7,.9-2.9,2.3-3.3,1.5-.5,3,.2,3.6,1l-.8,.8Z"/>
      <path class="uuid-5cf7c834-7db1-4545-9b5a-314aa1e738f6" d="M31.8,25l-.8,.8c-.2-.1-.3-.2-.5-.3-.3-.2-.7-.2-1.1,0-.3,0-.4,.3-.5,.5,0,.3,0,.5,.3,.6,.4,.2,.8,.3,1.2,.5,.3,.1,.5,.2,.8,.4,1.1,.6,1,2,.3,2.6-.6,.5-1.2,.7-2,.7-.7,0-1.4-.3-2-.7,0,0-.1-.1-.2-.2l.9-.9c.3,.3,.7,.5,1.1,.6,.3,0,.6,0,.9,0,.3,0,.4-.3,.5-.5,0-.3-.1-.5-.4-.6-.4-.2-.8-.3-1.1-.4-.3-.1-.5-.2-.8-.3-1.2-.7-1.1-2.3,0-2.9,.5-.3,.9-.4,1.5-.3,.7,0,1.4,.3,1.9,.8Z"/>
      <path class="uuid-5cf7c834-7db1-4545-9b5a-314aa1e738f6" d="M9.9,24.3h1.3c0,0,0,.2,0,.2,0,1.9,0,3.8,0,5.7,0,.2,0,.3-.2,.2-.3,0-.7,0-1,0v-6.2Z"/>
    </g>
  </g>
</svg>