<?xml version="1.0" encoding="UTF-8"?>
<svg id="uuid-a154fe5f-1ff6-4fda-a539-797d03eaf9c1" data-name="Layer 2" xmlns="http://www.w3.org/2000/svg" width="17.3mm" height="4.5mm" viewBox="0 0 51.9 15.7">
  <defs>
    <style>
      .uuid-f5fa25a4-0678-4949-8b39-a2c29cae37d2 {
        fill: #FFFFFF;
      }
    </style>
  </defs>
  <g id="uuid-43b0ba36-a094-4e85-a161-abe9c11a3068" data-name="Layer 1">
    <g>
      <path class="uuid-f5fa25a4-0678-4949-8b39-a2c29cae37d2" d="M30.2,15.5V2.7c.2,0,1.2,0,1.6,0,0,0,0,.2,.1,.3,.5,1.7,1,3.5,1.5,5.2,0,.2,.1,.5,.2,.7,0,.1,0,.2,.2,.3,0-.2,0-.3,0-.4,0-1.8,0-3.7,0-5.5,0-.2,0-.3,0-.5,0,0,.1,0,.2,0,.5,0,.9,0,1.4,0,.2,0,.3,0,.3,.3,0,0,0,.1,0,.2,0,4,0,7.9,0,11.9,0,0,0,.1,0,.2,0,.2,0,.3-.3,.3-.4,0-.9,0-1.4,0l-2-6.6h0c0,0,0,.2,0,.2,0,.1,0,.3,0,.4,0,1.8,0,3.6,0,5.4,0,.1,0,.2,0,.3,0,.1,0,.2-.2,.2-.5,0-1.1,0-1.6,0Z"/>
      <path class="uuid-f5fa25a4-0678-4949-8b39-a2c29cae37d2" d="M47.9,2.7h2.1c.2,.5,2,12.4,2,12.8h-1.6l-.6-2.7c-.5,0-1,0-1.5,0-.2,0-.2,.1-.2,.3,0,.4-.1,.8-.2,1.2,0,.4-.1,.8-.2,1.2h-1.7s0,0,0,0c0,0,0,0,0,0,.7-4.2,1.3-8.4,2-12.6,0,0,0,0,0-.2Zm1.7,8.2c0-.4-.5-3.7-.6-3.9-.1,.3-.6,3.7-.6,3.9h1.2Z"/>
      <path class="uuid-f5fa25a4-0678-4949-8b39-a2c29cae37d2" d="M40.2,9.1c0-1.3,0-2.6,0-3.9,0-.9,.4-1.7,1.2-2.3,.3-.2,.7-.3,1-.4,.5-.1,1.1,0,1.5,.2,.3,.1,.6,.4,.8,.7,.4,.5,.6,1.1,.6,1.7,0,.6,0,1.2,0,1.7,0,.3,0,.3-.3,.3-.4,0-.9,0-1.3,0-.3,0-.3,0-.3-.3,0-.5,0-1,0-1.6,0-.2,0-.3,0-.5,0-.2-.3-.3-.5-.3-.2,0-.4,.2-.5,.4,0,.1,0,.3,0,.4,0,2.5,0,5.1,0,7.6,0,.2,0,.3,.1,.5,0,.2,.2,.3,.5,.3,.2,0,.4,0,.5-.3,0-.1,0-.3,0-.4,0-.5,0-1,0-1.5,0-.5,0-.5,.5-.5,.4,0,.8,0,1.2,0,.2,0,.3,0,.3,.3,0,.7,0,1.4,0,2-.1,.9-.5,1.7-1.4,2.1-.7,.4-2.2,.4-2.9-.5-.3-.3-.5-.7-.6-1.2,0-.3-.1-.7-.1-1,0-1.2,0-2.4,0-3.6Z"/>
      <path class="uuid-f5fa25a4-0678-4949-8b39-a2c29cae37d2" d="M37.1,2.7h1.9c0,.1,0,.2,0,.4,0,4,0,8,0,12.1,0,0,0,.1,0,.2,0,.1,0,.2-.2,.2-.5,0-1,0-1.5,0-.2,0-.2,0-.2-.2,0,0,0-.1,0-.2,0-4,0-7.9,0-11.9,0-.1,0-.3,0-.4Z"/>
      <path class="uuid-f5fa25a4-0678-4949-8b39-a2c29cae37d2" d="M28.7,15.5c-.3,0-.6,0-.9,0-.2,0-.4,0-.7,0-.3,0-.3,0-.3-.3,0,0,0-.1,0-.2,0-3.9,0-7.9,0-11.8,0-.2,0-.3,0-.5h1.9c0,.2,0,12.4,0,12.8Z"/>
      <path class="uuid-f5fa25a4-0678-4949-8b39-a2c29cae37d2" d="M29.6,0c0,.1-.1,.2-.2,.3-.4,.4-.7,.8-1.1,1.2-.1,.1-.2,.2-.4,.2-.3,0-.6,0-.9,0-.2,0-.3-.1-.2-.3,.2-.4,.5-.8,.7-1.2,0,0,.1-.1,.2-.1,.6,0,1.1,0,1.8,0Z"/>
      <g>
        <path class="uuid-f5fa25a4-0678-4949-8b39-a2c29cae37d2" d="M19.5,5h0c0,0,0,.2,0,.3,0,.2,0,.3,.2,.3h0c.1,0,.2,0,.2-.2,0-.2,0-.3-.2-.3Z"/>
        <path class="uuid-f5fa25a4-0678-4949-8b39-a2c29cae37d2" d="M19.3,6.6h0c-.2,0-.4,.2-.4,.3,0,.2,.1,.3,.4,.3h0c.2,0,.4-.2,.4-.3,0-.2-.2-.3-.4-.3Z"/>
        <path class="uuid-f5fa25a4-0678-4949-8b39-a2c29cae37d2" d="M18.9,10.2c0,.2,.1,.3,.3,.3v-.6c-.2,0-.3,.1-.3,.3Z"/>
        <path class="uuid-f5fa25a4-0678-4949-8b39-a2c29cae37d2" d="M25.9,2.7c-.5,0-.9,0-1.4,0-.3,0-.3,0-.4,.3-.1,.9-.2,1.7-.3,2.6-.1,1.2-.3,2.3-.4,3.5,0,.3,0,.5,0,.8,0,0,0,.2-.2,.2-.1,0-.2,0-.2-.2,0,0,0,0,0,0,0-.8-.2-1.5-.3-2.3-.2-1.2-.4-2.4-.5-3.6,0-.4-.1-.8-.2-1.2-.2,0-.3,0-.4,0-1.3,0-2.6,0-3.9,0-.5,0-1,.1-1.4,.3-1.4,.6-2.5,1.6-3.2,3,0,.1-.2,.3-.3,.4-.2,.2-.4,.2-.7,.2-3,0-6.1,0-9.1,0,0,0-.1,0-.2,0-.2,0-.3,0-.3-.3,0-.2,0-.3-.3-.3-.3,0-.6,0-1,0-.3,0-.3,0-.3,.3,0,.2,0,.3-.3,.3-.1,0-.2,0-.3,.2,0,.1-.1,.2-.2,.3C0,8.3,0,9.5,0,10.8c0,.2,.3,.4,.3,.6,0,0,0,0,0,0,.2,0,.3,.1,.3,.4,0,.2,.1,.3,.3,.3,.3,0,.7,0,1,0,.2,0,.3,0,.3-.3,0-.3,0-.4,.4-.4,3.1,0,6.2,0,9.2,0,.4,0,.7,.2,1,.6,.2,.4,.5,.9,.8,1.2,.7,.9,1.6,1.5,2.7,1.9,.6,.2,1.2,.4,1.9,.4,1.7,0,3.4,0,5.1,0,0,0,.2,0,.3,0,.4-2.1,.7-4.3,1.1-6.4,.4-2.2,1-6.2,1-6.4Zm-7.8,8.5h.4v.4h-.4v-.4Zm1.9,1.6h-1.5v.5h-.4v-1.5h.4v.6h1.4v.4Zm0-1.2h-1.4v-.4h1.4v.4Zm-.7-.7h0c-.4,0-.7-.3-.7-.7,0-.5,.4-.7,.8-.7,0,0,0,0,.1,0v1c.2,0,.3-.2,.3-.3,0-.1,0-.2-.1-.3l.2-.2c.2,.1,.3,.3,.3,.6,0,.4-.3,.7-.7,.7Zm0-2.1h.8v.4h-1.4v-.4h.2c-.1,0-.2-.2-.2-.4,0-.3,.2-.5,.5-.5h.9v.4h-.8c-.2,0-.3,0-.3,.2,0,.2,0,.2,.3,.2Zm0-1.2h0c-.5,0-.7-.3-.7-.6,0-.2,0-.3,.2-.4h-.7v-.4h1.9v.4h-.2c.1,0,.2,.2,.2,.4,0,.3-.3,.6-.7,.6Zm.3-1.7h0c-.3,0-.4-.2-.4-.6,0-.1,0-.2,0-.3h0c-.2,0-.3,0-.3,.3,0,.2,0,.3,0,.4h-.3c0,0-.1-.2-.1-.4,0-.2,0-.4,.2-.5,.1-.1,.3-.1,.4-.1h.8v.4h-.2c.1,0,.2,.2,.2,.4,0,.3-.2,.5-.4,.5Z"/>
      </g>
    </g>
  </g>
</svg>